<svg width="100" height="100" viewBox="0 0 100 100" fill="none" xmlns="http://www.w3.org/2000/svg">
<path d="M56.25 3.125L0 59.375L34.375 93.75L90.625 37.5V3.125H56.25ZM71.875 28.125C70.6389 28.125 69.4305 27.7584 68.4027 27.0717C67.3749 26.3849 66.5738 25.4088 66.1008 24.2668C65.6277 23.1247 65.5039 21.8681 65.7451 20.6557C65.9862 19.4433 66.5815 18.3297 67.4556 17.4556C68.3297 16.5815 69.4433 15.9862 70.6557 15.7451C71.8681 15.5039 73.1247 15.6277 74.2668 16.1008C75.4088 16.5738 76.3849 17.3749 77.0717 18.4027C77.7584 19.4305 78.125 20.6389 78.125 21.875C78.125 23.5326 77.4665 25.1223 76.2944 26.2944C75.1223 27.4665 73.5326 28.125 71.875 28.125Z" fill="#1AA090"/>
<path d="M93.75 12.5V40.625L42.3633 92.0117L47.2656 96.875L100 43.75V12.5H93.75Z" fill="#1AA090"/>
</svg>
