<svg width="100" height="100" viewBox="0 0 100 100" fill="none" xmlns="http://www.w3.org/2000/svg">
<path d="M41.6667 74.9999C49.0624 74.9984 56.2451 72.5225 62.0709 67.9666L80.3875 86.2832L86.2792 80.3916L67.9625 62.0749C72.5209 56.2485 74.9983 49.0642 75 41.6666C75 23.2874 60.0459 8.33325 41.6667 8.33325C23.2875 8.33325 8.33337 23.2874 8.33337 41.6666C8.33337 60.0457 23.2875 74.9999 41.6667 74.9999ZM41.6667 16.6666C55.4542 16.6666 66.6667 27.8791 66.6667 41.6666C66.6667 55.4541 55.4542 66.6666 41.6667 66.6666C27.8792 66.6666 16.6667 55.4541 16.6667 41.6666C16.6667 27.8791 27.8792 16.6666 41.6667 16.6666Z" fill="#1AA090"/>
<path d="M47.5501 35.7751C49.1292 37.3584 50.0001 39.4501 50.0001 41.6668H58.3334C58.3371 39.4769 57.9067 37.308 57.067 35.2855C56.2274 33.2629 54.9952 31.4269 53.4417 29.8834C47.1334 23.5834 36.1959 23.5834 29.8917 29.8834L35.7751 35.7834C38.9417 32.6251 44.4001 32.6334 47.5501 35.7751Z" fill="#1AA090"/>
</svg>
